<svg xmlns="http://www.w3.org/2000/svg" width="420" height="420" viewBox="0 0 420 420">
        
      <defs>
        <filter id="glow">
          <feGaussianBlur in="SourceGraphic" stdDeviation="4" result="blur"></feGaussianBlur>
          <feColorMatrix type="matrix" values="1 0 0 0 0  0 1 0 0 0  0 0 1 0 0  0 0 0 1 0" result="brightBlur"></feColorMatrix>
          <feMerge>
            <feMergeNode in="brightBlur"></feMergeNode>
            <feMergeNode in="SourceGraphic"></feMergeNode>
          </feMerge>
        </filter>
      </defs>
    
        <path d="M239.31,127.47c.2-.31.48-.71.98-1.03.65-.41,1.46-.83,2.08-1.11.64-.28,1.09-.38,1.79-.55,1.38-.33,2.55-.3,3.3-.25,1.52.1,1.86.23,3.21.66,0,0,1.08.34,1.31.44.39.16.54.21,1.26.65.68.41,1.17.66,1.26,1.01.04.13.08.48-.12,1.21-.21.79-.32,1.18-.43,1.43-.14.3-.5,1.05-.88,1.51-.31.38-.75.57-1.61.95-1.12.5-1.6.69-1.88.81-.07.03-.39.13-.73.19-.33.06-.68.08-.79.1-.43.05-.98.09-1.48.12-.56.02-1.06.03-1.25.18-.22.17-.44.87-.45,1.11,0,.75.02,1.02.04,1.19.02.19.02.31.14.97.07.38.14.73.09,1.12,0,.06-.11.63-.27.99-.12.26-.08.6,0,.72.39.55,2,1.21,3.75,1.26,1.16.03,3.28,0,4.74-.5,2.31-.8,4.06-4.53,4.26-4.46.17.05-1.34,3.47-2.18,6.05-.34,1.04-.16,4.23.29,5.12.11.22.98,2.28,2.2,4.42,1.35,2.36,2.25,3.46,4.02,6.55.38.67.19.56,1.49,3.05.18.34.91,1.91,1.02,2.27.17.6.49,1.92.37,3.32-.18,2.14-.36,2.34-.82,3.34-.77,1.64-3.19,6.68-3.95,8.81-.8,2.25-1.62,7.52-1.91,9.35-.24,1.55-1.2,3.56-1.78,4.37-1.16,1.59-1.94,2.44-2.77,3.34-.21.22-.99,1-.96,1.55.1,1.64,1.06,4.45.67,6.08-.51,2.18-1.99,6.03-2.56,7.74-.64,1.94-2.15,5.71-3.06,7.34-.83,1.48-1.43,2.44-1.96,2.96-1.22,1.2-3.39,3.08-4.79,4.29-.68.59-1.72,1.52-2.79,2.26-1.59,1.1-4.12,2.96-6.95,4.03-4.73,1.79-7.22,2.87-11.34,4.28-1.39.48-7.29,2.02-10.96,2.62-1.91.31-5.51.58-6.77.67-3.67.25-12.76,1.28-17.49-.08-1.18-.34-5.41-1.73-10.02-4.11-5-2.58-10.45-6.21-12.96-7.98-4.84-3.4-9.24-6.66-9.24-6.66,0,0,9.9,5.53,17.5,9.83,3.47,1.96,10.72,6,11.8,6.38,1.34.47,3.4,1.02,5.58,1.41,1.54.28,7.19.74,11.65.38,6.32-.52,6.04-.6,8.42-.93,7.27-1,11.77-2.63,11.77-2.63l10.94-4.38,6.05-3.24s2.89-1.95,4.23-2.88c1.19-.83,2.96-3.16,3.35-3.75,1.18-1.76,2.05-3.02,3.01-5.04.96-2.02,3.48-8.75,3.48-8.75,0,0,2.08-6.34,1.08-8.56-.53-1.17,4.47-6.87,5.04-8.4.27-.72.57-1.39.7-2.05.2-1.07.15-2.44,0-3.75-.26-2.26,0-4.84.76-5.93.77-1.09,2.3-4.39,3.07-5.85.99-1.89,2.24-4.9,2.24-6.29,0-.54.03-2.71-.39-3.51-.81-1.54-1.99-4.2-3.45-6.52-3.51-5.58-3.89-6.47-4.39-7.64-.18-.41-.61-1.75-1.48-3.96-.22-.56-.9-2-1.02-2.08-.8-.55-1.22-.81-2.18-.93-.83-.1-1.42-.29-2.24-.36-1.07-.1-.99-.22-2.14-.07-.06,0-.59.16-.95.36-.08.04-.29.09-.56.45-.17.22-.2.34-.26.47-.06.16-.09.23-.09.32,0,.23,0,.49-.28.55-.12.02-.88.35-.99.36-.14.01-.36-.05-.45-.1-.17-.09.03-1.11.08-1.29.08-.3.18-.56.39-.84.2-.27.17-.21.71-1.01.4-.74.44-.68.62-1.04.12-.24.62-1.28.63-1.54.03-.38-.01-.83-.06-1.17-.07-.48-.19-.9-.53-2.03-.17-.56-.28-1.16-.33-1.3-.09-.22-.43-.97-.7-1.45-.44-.77-.86-1.3-1.35-1.77-.5-.49-1.07-1.28-1.53-1.85-.41-.51-.73-.93-.84-1.27M83.59,176.44c0,.09-.19.32-.19.32,0,0,2,.33,3.27.52.69.1,1.56.21,2.04.38.31.11,1.61.42,1.9.55.29.13,2.33.86,2.33.86l.99.41s1.13.42,1.4.54c.43.19,1.6.62,1.75.68.45.2.99.41,1.54.61.55.19,1.26.51,1.78.71.44.17,1.59.58,2.01.82.42.24,1.82.68,2.23.91s2.14.69,2.53.8c.38.11,2.11.45,2.74.54.63.09,2.31.36,2.94.45.63.09,2.42.32,3.05.45.63.13.81.17,1.27.2.46.03,2.03.13,2.51.22.48.09,1.82.02,2.33-.05.51-.07,1.9-.31,2.66-.41.76-.1,1.48-.3,2.13-.43.64-.13,1.55-.26,2.1-.35.55-.09,1.94-.4,2.85-.5.91-.1,1.14-.18,1.79-.18s1.12-.09,1.64-.12c.52-.03,1.49.02,2.02.1.53.08.94.15,1.51.26,1.06.21,1.59.26,2,.39.52.17.96.3,1.28.42.32.12,1.45.55,1.59.59.13.04,1.31.65,1.7.83.39.18,1.28.7,1.36.73.08.03,1.53.69,1.8.82.27.14.77.41,1.17.53.39.12,1.41.56,1.85.7.44.14,2.05.52,2.41.63.36.11,2.21.69,2.56.84.35.16,1.6.73,4.02,1.5,2.42.77,2.62.84,4.11,1.21,1.79.44,2.57.76,3.71,1.04,1.14.28,3.4.54,4.56.67,1.16.13,3.59.25,4.49.19.91-.06,3.05-.2,4.72-.2s4.44-.44,5.42-.64c1.34-.27,2.45-.44,3.55-.8.57-.19,2.42-.58,3.62-.94,1.09-.32,1.87-.58,2.4-.78.54-.2,2.48-.65,3.03-.78.56-.13,1.12-.3,1.51-.32.42-.02,1.04.1,1.66.24.62.14,1.34.26,2,.47.66.21,1.5.6,2,.76.5.16,2.08.85,2.59,1.09.51.25,1.94.83,2.39,1.05.45.22,1.73.74,2.07.83.34.09,1.34.54,1.96.73.91.28,1.74.59,2.26.88.53.3,2.13.87,2.56,1.01.43.13,1.44.37,1.94.41.51.04,1.82.06,2.5-.02.85-.1,1.35-.12,1.89-.23.57-.12,1.19-.28,1.65-.35.46-.07,1.64-.32,2.26-.48.62-.16,1.29-.46,1.95-.69.65-.23,1.41-.7,1.95-1.03.54-.33,1.25-.92,1.88-1.3.62-.38,1.26-1.08,1.94-1.44.68-.36.6-.28,1.07-.37.45-.09,1.45.36,2.22.7.68.3.89.46,1.65.85.75.38,1.18.62,1.57.9.39.29,1.43.75,2.11,1.18.69.43.69.41,1.88,1.22,1.19.81,1.77,1.19,1.77,1.19,0,0,.31-.64.6-1.59.1-.31,1.79-2.64,1.49-2.47-.49.28-2.2,1.75-2.63,1.73-.69-.04-2.4-1.34-2.4-1.34,0,0-1.8-1.03-2.4-1.35-.6-.33-2.58-1.18-3.13-1.47-.55-.3-1.3-.53-1.92-.7-.4-.11-1.17-.18-1.98.15-.41.16-1.53,1.35-1.96,1.59-.43.25-.61.48-1.45,1.07-.6.43-1.38.79-1.86,1.03-.48.24-1.45.83-1.82.97-.37.14-1.05.29-1.8.5-.74.2-1.22.22-1.96.4-.52.12-2.25.1-2.62.19-.17.04-.96,0-1.61,0-.94,0-2.09-.28-2.79-.45-.7-.17-.49-.12-1.78-.78-1.29-.66-2.1-.78-3.55-1.4-1.07-.46-1.08-.33-1.93-.77-.41-.21-1.78-.74-2.57-1.08-.64-.28-1.54-.69-2.54-1.1-1.01-.4-3.46-1.26-4.47-1.56-.7-.21-1.74-.59-2.58-.51-1.28.12-3.08.5-4.17.75-1.09.25-3.72.88-4.45,1.1-.73.23-3.1.53-3.68.68-.59.14-3.46.77-3.85.77s-3.34.56-4.23.66c-.89.1-6.79.35-7.79.31-.93-.04-4.51-.57-5.29-.73-.78-.16-2.37-.45-3-.58-.63-.13-2.18-.6-2.5-.65-.32-.05-1.37-.48-1.86-.63-.48-.15-1.85-.71-2.23-.83-.38-.12-1.42-.55-1.82-.67-.41-.12-1.06-.39-2.19-.73-.44-.13-1.38-.51-2.11-.68-.84-.2-1.3-.38-1.68-.5-.55-.17-1.54-.6-2.1-.81s-2.25-.9-3.02-1.3c-.76-.4-2.88-1.51-4.17-1.98-1.28-.48-3.1-.95-4.18-.95s-3.51.26-4.12.35c-.93.14-1.57.09-2.64.29-.63.12-3.04.48-4.14.72-1.06.23-2.44.68-3.49.84-.91.14-4.1.15-4.83.1-.73-.05-2.42-.28-3.12-.4-.7-.12-2.53-.46-3.2-.53-.67-.07-2.58-.43-3.61-.62-1.02-.2-2.02-.6-2.7-.79-.68-.19-1.93-.74-2.52-.94-.33-.11-.88-.34-1.69-.66-.66-.25-1.59-.59-1.9-.72-.69-.28-1.37-.63-2.08-.91-.71-.29-1.01-.53-4.36-1.88-1.41-.57-3.9-1.15-5.27-1.39-1.88-.33-4.14-.65-4.14-.65,0,0,.12.28.11.36M119.09,155.5c-.2.58-1.58,4.38-6.86,7.6-2.48,1.51-5.1,2.46-5.48,2.59-.62.22-2.56.89-4.96,1.27-1.1.18-3.66.57-6.01.07-2.19-.47-3.01-1.47-3.53-2.12-.22-.27-1.12-1.44-.99-3.44.03-.47.16-1.64.98-3.26.55-1.09,1.04-2.08,2.37-3.36,1.77-1.72,3.83-2.83,4.24-3.05,2.09-1.11,3.89-1.62,5.34-2.03,1.11-.31,2.21-.63,3.51-.73.9-.07,1.65-.03,2.78.04,1.31.08,1.38.16,2.1.12.56-.03,2.29-.12,3.02-.65,1.33-.98-1.45-2.93-1-3.2.34-.19,2.14.72,3.43,1.99.49.48.85.84,1.05,1.47.17.51.48,1.48-.34,2.87-.96,1.62-2.95,2.89-4.17,3.67-2.81,1.8-5.62,2.76-7.07,3.19,1.53-1.1,2.37-2.29,2.05-3.03-.33-.74-1.72-.77-2.58-.79-.77-.01-1.81-.03-3.15.47-2.23.85-3.37,2.45-3.56,2.72-.88,1.28-.44,2.1-.2,2.55.17.31.58.89,1.63,1.25,1.51.53,3.39.28,4.16.18,2.42-.33,4.47-1.19,5.73-1.73,3.79-1.62,6.32-3.62,7.51-4.64M286.32,43.88c-.78,12.02-41.95,19.84-91.94,17.45-50-2.39-89.89-14.07-89.11-26.09s41.95-19.84,91.94-17.45c50,2.38,89.89,14.07,89.11,26.09M194.7,22.97c-40.44-1.93-73.66,3.4-74.22,11.91-.55,8.5,31.78,16.96,72.21,18.89,40.44,1.93,73.66-3.4,74.22-11.91.55-8.5-31.78-16.96-72.21-18.89" fill="#ffff13" fill-rule="evenodd" opacity="1" filter="url(#glow)"></path>
      </svg>