<svg xmlns="http://www.w3.org/2000/svg" viewBox="0 0 420 420">
  <path d="l 96.00 153.00 5.00 2.00 9.00 1.00 1.27" fill="#352F8A" stroke="#080055" stroke-width="1.0"/>
  <path d="l 96.00 153.00 3.00 4.00 1.27" fill="#8E0E02" stroke="#080055" stroke-width="1.0"/>
  <path d="l 98.00 143.00 4.00 12.00 s -1.00 v -5.00 2.00 3.00 1.27" fill="#352F8A" stroke="#080055" stroke-width="1.0"/>
  <path d="l 97.00 138.00 1.00 5.00 3.00 1.27 l 9.00 0.00 2.00 5.00 1.27 l 5.00 3.00 1.27 l 3.00 2.00 t -2.00 1.27" fill="#34C8C9" stroke="#080055" stroke-width="1.0"/>
  <path d="l 123.00 128.00 6.00 s -3.00 v -4.00 3.00 4.00 1.27" fill="#352F8A" stroke="#080055" stroke-width="1.0"/>
  <path d="m 118.00 134.00 s -6.00 v 1.00 s 2.00 v -1.00 t -2.00 1.27" fill="#352F8A" stroke="#080055" stroke-width="1.0"/>
  <path d="l 117.00 125.00 4.00 s -1.00 t -4.00 v 2.00 1.27" fill="#34C8C9" stroke="#080055" stroke-width="1.0"/>
  <path d="l 126.00 118.00 6.00 1.00 t -2.00 v 2.00 2.00 1.27" fill="#34C8C9" stroke="#080055" stroke-width="1.0"/>
  <path d="m 127.00 118.00 s -1.00 v -7.00 1.00 3.00 s 2.00 1.27" fill="#352F8A" stroke="#080055" stroke-width="1.0"/>
  <path d="l 134.00 114.00 4.00 s -1.00 v -2.00 3.00 s 5.00 1.27" fill="#34C8C9" stroke="#080055" stroke-width="1.0"/>
  <path d="m 138.00 114.00 s -4.00 v -1.00 s 6.00 1.27" fill="#8E0E02" stroke="#080055" stroke-width="1.0"/>
</svg>